<svg width="22" height="22" viewBox="0 0 22 22" fill="none" xmlns="http://www.w3.org/2000/svg">
<path d="M12.832 15.6588C13.0385 15.7537 13.2712 15.7753 13.4917 15.7203C13.7122 15.6652 13.9073 15.5366 14.045 15.3558L14.4 14.8908C14.5863 14.6424 14.8279 14.4408 15.1056 14.302C15.3833 14.1631 15.6895 14.0908 16 14.0908H19C19.5304 14.0908 20.0391 14.3015 20.4142 14.6766C20.7893 15.0517 21 15.5604 21 16.0908V19.0908C21 19.6213 20.7893 20.13 20.4142 20.505C20.0391 20.8801 19.5304 21.0908 19 21.0908C14.2261 21.0908 9.64773 19.1944 6.27208 15.8187C2.89642 12.4431 1 7.86472 1 3.09082C1 2.56039 1.21071 2.05168 1.58579 1.67661C1.96086 1.30153 2.46957 1.09082 3 1.09082H6C6.53043 1.09082 7.03914 1.30153 7.41421 1.67661C7.78929 2.05168 8 2.56039 8 3.09082V6.09082C8 6.40131 7.92771 6.70754 7.78885 6.98525C7.65 7.26296 7.44839 7.50453 7.2 7.69082L6.732 8.04182C6.54842 8.182 6.41902 8.38141 6.36579 8.60617C6.31256 8.83094 6.33878 9.0672 6.44 9.27482C7.80668 12.0507 10.0544 14.2956 12.832 15.6588Z" stroke="white" stroke-width="1.2" stroke-linecap="round" stroke-linejoin="round"/>
</svg>
