<svg width="16" height="17" viewBox="0 0 16 17" fill="none" xmlns="http://www.w3.org/2000/svg">
<path d="M8 5.35037C9.51338 5.35045 10.7403 6.57745 10.7405 8.09082C10.7405 9.60428 9.51344 10.8312 8 10.8313C6.48649 10.8313 5.25955 9.60433 5.25955 8.09082C5.25966 6.57741 6.48656 5.35037 8 5.35037Z" fill="#EBEDF1"/>
<path fill-rule="evenodd" clip-rule="evenodd" d="M8 0.0908203C11.1956 0.0908203 12.7936 0.0906467 13.9444 0.852105C14.4584 1.19215 14.8987 1.63245 15.2387 2.14638C16.0002 3.29725 16 4.8952 16 8.09082C16 11.2864 16.0002 12.8844 15.2387 14.0353C14.8987 14.5492 14.4584 14.9895 13.9444 15.3295C12.7936 16.091 11.1956 16.0908 8 16.0908C4.80438 16.0908 3.20643 16.091 2.05556 15.3295C1.54163 14.9895 1.10133 14.5492 0.761285 14.0353C-0.000173622 12.8844 0 11.2864 0 8.09082C0 4.8952 -0.000173781 3.29725 0.761285 2.14638C1.10133 1.63245 1.54163 1.19215 2.05556 0.852105C3.20643 0.0906465 4.80438 0.0908203 8 0.0908203ZM8 3.94933C5.71267 3.94933 3.85862 5.80352 3.85851 8.09082C3.85851 10.3782 5.7126 12.2323 8 12.2323C10.2873 12.2322 12.1415 10.3782 12.1415 8.09082C12.1414 5.80356 10.2873 3.9494 8 3.94933ZM12.3056 2.7679C11.7682 2.7679 11.3317 3.20364 11.3316 3.74099C11.3316 4.27846 11.7681 4.71408 12.3056 4.71408C12.8428 4.71386 13.2786 4.27832 13.2786 3.74099C13.2785 3.20378 12.8427 2.76813 12.3056 2.7679Z" fill="#EBEDF1"/>
</svg>
