<svg width="17" height="17" viewBox="0 0 17 17" fill="none" xmlns="http://www.w3.org/2000/svg">
<path d="M16.8653 10.1189V16.3076H13.2427V10.4963C13.2427 9.06234 12.7144 8.08121 11.4314 8.08121C10.4503 8.08121 9.84648 8.76045 9.62006 9.36422C9.54459 9.59064 9.46912 9.89252 9.46912 10.2699V16.3076H5.84648C5.84648 16.3076 5.92195 6.4963 5.84648 5.51517H9.46912V7.0246C9.92195 6.26988 10.8276 5.21328 12.7144 5.21328C15.054 5.21328 16.8653 6.79818 16.8653 10.1189ZM2.07289 0.307617C0.865343 0.307617 0.0351562 1.13781 0.0351562 2.19441C0.0351562 3.25101 0.789872 4.0812 1.99742 4.0812C3.28044 4.0812 4.03516 3.25101 4.03516 2.19441C4.11063 1.06233 3.35591 0.307617 2.07289 0.307617ZM0.261571 16.3076H3.88421V5.51517H0.261571V16.3076Z" fill="#EBEDF1"/>
</svg>
