<svg width="22" height="28" viewBox="0 0 22 28" fill="none" xmlns="http://www.w3.org/2000/svg">
<path d="M21 11.5908C21 17.8321 14.0762 24.3321 11.7512 26.3396C11.5347 26.5024 11.271 26.5905 11 26.5905C10.729 26.5905 10.4653 26.5024 10.2488 26.3396C7.92375 24.3321 1 17.8321 1 11.5908C1 8.93866 2.05357 6.39512 3.92893 4.51975C5.8043 2.64439 8.34784 1.59082 11 1.59082C13.6522 1.59082 16.1957 2.64439 18.0711 4.51975C19.9464 6.39512 21 8.93866 21 11.5908Z" stroke="white" stroke-width="1.5" stroke-linecap="round" stroke-linejoin="round"/>
<path d="M11 15.3408C13.0711 15.3408 14.75 13.6619 14.75 11.5908C14.75 9.51975 13.0711 7.84082 11 7.84082C8.92893 7.84082 7.25 9.51975 7.25 11.5908C7.25 13.6619 8.92893 15.3408 11 15.3408Z" stroke="white" stroke-width="1.5" stroke-linecap="round" stroke-linejoin="round"/>
</svg>
