<svg width="21" height="17" viewBox="0 0 21 17" fill="none" xmlns="http://www.w3.org/2000/svg">
<path d="M20.7715 2.75926C20.0535 3.06695 19.233 3.27208 18.4125 3.37465C19.233 2.86183 19.951 2.04132 20.2587 1.11824C19.4382 1.63106 18.6177 1.93875 17.592 2.14388C16.8741 1.32337 15.7459 0.810547 14.6177 0.810547C12.3612 0.810547 10.5151 2.6567 10.5151 4.91311C10.5151 5.2208 10.5151 5.52849 10.6177 5.83618C7.23304 5.63105 4.15612 3.99003 2.10484 1.52849C1.79714 2.14388 1.59202 2.86182 1.59202 3.57977C1.59202 5.01567 2.30997 6.24644 3.43817 6.96439C2.72022 6.96439 2.10484 6.75926 1.59202 6.45157C1.59202 8.40029 3.02791 10.1439 4.87406 10.4516C4.56637 10.5541 4.15612 10.5541 3.74587 10.5541C3.43818 10.5541 3.23304 10.5541 2.92535 10.4516C3.43817 12.0926 4.97664 13.3234 6.82279 13.3234C5.38689 14.4516 3.6433 15.0669 1.69459 15.0669C1.38689 15.0669 1.0792 15.067 0.668945 14.9644C2.5151 16.0926 4.66894 16.8105 7.02791 16.8105C14.6177 16.8105 18.7202 10.5541 18.7202 5.11823V4.60541C19.5407 4.29772 20.2587 3.57977 20.7715 2.75926Z" fill="#EBEDF1"/>
</svg>
